<?xml version="1.0" standalone="no"?>
<!DOCTYPE svg PUBLIC "-//W3C//DTD SVG 20010904//EN"
 "http://www.w3.org/TR/2001/REC-SVG-20010904/DTD/svg10.dtd">
<svg version="1.0" xmlns="http://www.w3.org/2000/svg"
 width="700.000000pt" height="700.000000pt" viewBox="0 0 700.000000 700.000000"
 preserveAspectRatio="xMidYMid meet">
<metadata>
Created by potrace 1.14, written by Peter Selinger 2001-2017
</metadata>
<g transform="translate(0.000000,700.000000) scale(0.100000,-0.100000)"
fill="#000000" stroke="none">
<path d="M1989 6447 c-116 -40 -355 -191 -566 -358 -147 -117 -394 -361 -504
-499 -601 -754 -847 -1679 -698 -2625 160 -1013 811 -1917 1729 -2403 787
-417 1727 -498 2575 -222 1091 355 1923 1249 2199 2361 75 305 102 560 93 893
-10 342 -49 584 -149 901 -243 776 -762 1432 -1467 1855 -143 86 -245 125
-296 114 -74 -16 -97 -86 -50 -155 13 -21 91 -85 177 -147 297 -216 513 -435
700 -712 229 -340 372 -716 434 -1145 25 -168 25 -534 0 -700 -47 -322 -125
-579 -257 -844 -123 -248 -249 -427 -337 -479 -47 -27 -47 -27 -232 -26 -263
2 -443 35 -637 117 -192 81 -350 221 -428 380 -61 125 -79 198 -78 332 0 146
27 256 98 400 64 130 130 220 241 330 146 144 354 275 564 355 129 49 212 89
238 113 71 66 69 160 -5 228 -40 38 -92 62 -212 99 -128 39 -151 53 -151 91 0
60 118 108 328 134 190 23 256 64 255 158 -1 62 -32 115 -106 183 -88 80 -207
150 -324 190 -140 47 -233 57 -425 42 -131 -10 -172 -10 -250 3 -195 30 -303
14 -527 -75 -383 -155 -775 -409 -1391 -901 -343 -275 -1192 -988 -1234 -1036
-46 -55 -62 -109 -46 -162 24 -82 112 -97 275 -47 162 50 211 39 235 -52 24
-91 45 -132 79 -155 31 -21 46 -23 156 -23 108 0 125 -2 148 -20 49 -39 45
-132 -12 -265 -108 -253 -290 -415 -506 -454 -147 -26 -215 21 -371 256 -226
340 -368 729 -426 1163 -19 142 -15 518 6 665 62 429 204 804 434 1145 196
290 420 513 765 759 99 71 137 118 137 172 0 76 -74 103 -181 66z m161 -42 c0
-9 -14 -24 -31 -33 -17 -9 -83 -51 -147 -93 -759 -493 -1231 -1334 -1259
-2244 -24 -779 261 -1499 812 -2051 159 -160 257 -240 435 -359 272 -182 543
-300 880 -385 85 -22 166 -48 180 -58 47 -35 107 -136 243 -407 135 -271 197
-365 237 -365 40 0 102 94 237 365 135 270 196 372 244 407 14 11 79 32 145
48 416 99 793 282 1124 546 120 95 361 341 451 459 331 434 519 903 575 1433
21 189 14 491 -15 680 -122 800 -569 1500 -1233 1931 -64 42 -130 84 -147 93
-32 18 -42 48 -16 48 39 0 332 -168 492 -282 235 -167 479 -395 647 -603 106
-132 253 -352 331 -493 202 -367 335 -809 375 -1247 13 -141 13 -449 0 -590
-58 -625 -300 -1224 -694 -1720 -103 -129 -384 -410 -506 -507 -495 -391
-1052 -619 -1680 -689 -163 -18 -534 -16 -700 5 -618 76 -1182 314 -1660 700
-41 34 -135 119 -209 191 -525 511 -840 1127 -953 1860 -26 169 -36 560 -19
741 72 772 391 1454 931 1994 235 235 463 404 770 572 128 69 160 80 160 53z
m2250 -1110 l55 -54 93 29 c240 75 446 64 643 -36 79 -40 205 -133 274 -203
41 -43 48 -54 39 -69 -10 -15 -31 -17 -165 -18 -265 -3 -480 -63 -659 -184
-98 -67 -186 -176 -214 -265 -6 -21 -5 -21 91 -8 159 20 436 27 536 14 105
-14 188 -43 229 -80 38 -34 30 -57 -26 -71 -22 -6 -88 -27 -146 -46 -86 -28
-120 -34 -185 -33 l-80 0 65 30 c36 17 106 44 155 61 50 17 94 34 98 38 5 4
-22 14 -60 21 -99 20 -393 18 -580 -5 -83 -10 -159 -16 -169 -12 -25 9 -12 79
31 173 50 108 173 229 302 296 161 84 339 132 529 144 103 6 104 6 87 26 -32
35 -177 125 -243 151 -104 40 -148 48 -260 48 -111 0 -189 -14 -311 -57 -40
-14 -79 -25 -88 -25 -8 0 -41 25 -72 56 l-57 57 -74 -18 c-383 -93 -831 -353
-1481 -862 -156 -122 -158 -123 -210 -123 -51 0 -52 1 -31 18 768 626 1248
921 1679 1033 61 15 119 28 130 29 11 0 44 -24 75 -55z m-215 -365 c93 -93 93
-92 -4 -157 -143 -98 -298 -95 -412 5 -34 31 -40 41 -32 56 9 16 331 173 358
175 6 1 46 -35 90 -79z"/>
<path d="M912 5268 c-293 -431 -468 -906 -533 -1443 -18 -149 -15 -533 5 -689
68 -527 232 -967 517 -1392 421 -628 1091 -1098 1829 -1284 208 -52 460 -90
599 -90 l63 0 -34 43 c-61 74 -119 177 -220 392 -105 223 -148 299 -176 310
-9 4 -78 22 -152 40 -516 128 -979 391 -1353 768 -718 725 -997 1763 -742
2762 45 175 111 352 200 534 41 83 72 151 71 151 -2 0 -35 -46 -74 -102z"/>
<path d="M6085 5219 c371 -758 391 -1634 56 -2414 -351 -816 -1097 -1447
-1951 -1650 -63 -15 -127 -31 -142 -37 -38 -14 -72 -71 -186 -313 -101 -215
-159 -318 -220 -392 l-34 -43 63 0 c161 0 472 52 695 116 383 109 782 316
1099 569 132 105 381 354 485 485 377 475 603 1027 671 1640 18 160 15 514 -5
679 -62 509 -241 986 -528 1409 -39 56 -72 102 -74 102 -1 0 30 -68 71 -151z"/>
<path d="M3970 4875 c-63 -29 -116 -57 -118 -63 -4 -13 82 -42 124 -42 40 0
129 33 164 60 l25 19 -40 39 -40 40 -115 -53z"/>
</g>
</svg>
